<svg width="15" height="16" viewBox="0 0 15 16" fill="none" xmlns="http://www.w3.org/2000/svg">
<mask id="mask0_864_206" style="mask-type:alpha" maskUnits="userSpaceOnUse" x="0" y="0" width="15" height="16">
<rect y="0.5" width="15" height="15" fill="#D9D9D9"/>
</mask>
<g mask="url(#mask0_864_206)">
<path d="M3.75 13C3.0625 13 2.47396 12.7552 1.98438 12.2656C1.49479 11.776 1.25 11.1875 1.25 10.5V5.5C1.25 4.8125 1.49479 4.22396 1.98438 3.73438C2.47396 3.24479 3.0625 3 3.75 3H11.25C11.9375 3 12.526 3.24479 13.0156 3.73438C13.5052 4.22396 13.75 4.8125 13.75 5.5V10.5C13.75 11.1875 13.5052 11.776 13.0156 12.2656C12.526 12.7552 11.9375 13 11.25 13H3.75ZM3.75 5.5H11.25C11.4792 5.5 11.6979 5.52604 11.9063 5.57812C12.1146 5.63021 12.3125 5.71354 12.5 5.82812V5.5C12.5 5.15625 12.3776 4.86198 12.1328 4.61719C11.888 4.3724 11.5938 4.25 11.25 4.25H3.75C3.40625 4.25 3.11198 4.3724 2.86719 4.61719C2.6224 4.86198 2.5 5.15625 2.5 5.5V5.82812C2.6875 5.71354 2.88542 5.63021 3.09375 5.57812C3.30208 5.52604 3.52083 5.5 3.75 5.5ZM2.59375 7.53125L9.54688 9.21875C9.64062 9.23958 9.73438 9.23958 9.82812 9.21875C9.92188 9.19792 10.0104 9.15625 10.0938 9.09375L12.2656 7.28125C12.151 7.125 12.0052 6.9974 11.8281 6.89844C11.651 6.79948 11.4583 6.75 11.25 6.75H3.75C3.47917 6.75 3.24219 6.82031 3.03906 6.96094C2.83594 7.10156 2.6875 7.29167 2.59375 7.53125Z" fill="#18181B"/>
</g>
</svg>
